<svg xmlns="http://www.w3.org/2000/svg" xmlns:xlink="http://www.w3.org/1999/xlink" width="2000" zoomAndPan="magnify" viewBox="0 0 1500 1499.999933" height="2000" preserveAspectRatio="xMidYMid meet" version="1.0"><defs><g/><clipPath id="aabadca70d"><path d="M 704.449219 561.175781 L 771 561.175781 L 771 627.925781 L 704.449219 627.925781 Z M 704.449219 561.175781 " clip-rule="nonzero"/></clipPath><clipPath id="67dfa4e18e"><rect x="0" width="135" y="0" height="419"/></clipPath><clipPath id="ba6232705a"><rect x="0" width="239" y="0" height="391"/></clipPath><clipPath id="d5ac22ee20"><rect x="0" width="594" y="0" height="137"/></clipPath><clipPath id="2a63a8d99c"><rect x="0" width="555" y="0" height="46"/></clipPath></defs><!-- bg removed --><!-- bg removed --><path stroke-linecap="butt" transform="matrix(0, -0.75, 0.75, 0, 733.225578, 789.696992)" fill="none" stroke-linejoin="miter" d="M 0.00223931 6.001313 L 520.642909 6.001313 " stroke="#f2f1ee" stroke-width="12" stroke-opacity="1" stroke-miterlimit="4"/><g clip-path="url(#aabadca70d)"><path fill="#f2f1ee" d="M 771 594.453125 C 746.347656 605.402344 748.671875 603.074219 737.722656 627.726562 C 726.777344 603.074219 729.101562 605.398438 704.449219 594.453125 C 729.101562 583.503906 726.777344 585.832031 737.722656 561.175781 C 748.671875 585.832031 746.347656 583.503906 771 594.453125 Z M 771 594.453125 " fill-opacity="1" fill-rule="nonzero"/></g><g transform="matrix(1, 0, 0, 1, 619, 264)"><g clip-path="url(#67dfa4e18e)"><g fill="#f2f1ee" fill-opacity="1"><g transform="translate(33.784822, 333.791243)"><g><path d="M 19.984375 -261.375 L 49.53125 -261.375 L 49.53125 6.65625 C 49.53125 19.976562 46.546875 32.253906 40.578125 43.484375 C 34.609375 54.722656 25.867188 63.742188 14.359375 70.546875 C 2.847656 77.347656 -11.09375 80.75 -27.46875 80.75 L -27.46875 73.671875 C -13.59375 73.671875 -3.328125 70.894531 3.328125 65.34375 C 9.984375 59.789062 14.421875 52.019531 16.640625 42.03125 C 18.867188 32.039062 19.984375 20.25 19.984375 6.65625 Z M 19.984375 -261.375 "/></g></g></g></g></g><g transform="matrix(1, 0, 0, 1, 750, 527)"><g clip-path="url(#ba6232705a)"><g fill="#f2f1ee" fill-opacity="1"><g transform="translate(0.556734, 312.327567)"><g><path d="M 18.6875 0.390625 L 18.6875 -244.578125 L 46.734375 -244.578125 L 46.734375 0.390625 Z M 77.109375 -141.375 L 197.84375 0.390625 L 161.234375 0.390625 L 53.359375 -126.1875 L 168.640625 -244.578125 L 177.59375 -244.578125 Z M 77.109375 -141.375 "/></g></g></g></g></g><g transform="matrix(1, 0, 0, 1, 456, 834)"><g clip-path="url(#d5ac22ee20)"><g fill="#f2f1ee" fill-opacity="1"><g transform="translate(0.478822, 98.517331)"><g><path d="M 4 0.171875 L 4.359375 -6.046875 C 7.316406 -4.023438 10.066406 -2.523438 12.609375 -1.546875 C 15.160156 -0.578125 17.476562 -0.09375 19.5625 -0.09375 C 23.175781 -0.09375 26.09375 -1.289062 28.3125 -3.6875 C 30.53125 -6.082031 31.640625 -9.445312 31.640625 -13.78125 L 31.640625 -62.40625 L 40.53125 -62.40625 L 40.53125 -15.734375 C 40.289062 -11.585938 38.941406 -8.269531 36.484375 -5.78125 C 34.023438 -3.289062 30.914062 -1.484375 27.15625 -0.359375 C 23.394531 0.765625 19.378906 1.328125 15.109375 1.328125 C 13.273438 1.328125 11.410156 1.222656 9.515625 1.015625 C 7.617188 0.816406 5.78125 0.535156 4 0.171875 Z M 4 0.171875 "/></g></g></g><g fill="#f2f1ee" fill-opacity="1"><g transform="translate(52.748915, 98.517331)"><g><path d="M 14.671875 -34.484375 L 14.671875 -1.25 C 20.234375 -1.25 25.207031 -1.363281 29.59375 -1.59375 C 33.976562 -1.832031 38.023438 -2.320312 41.734375 -3.0625 C 45.441406 -3.800781 49.039062 -4.851562 52.53125 -6.21875 L 52.53125 0 L 5.78125 0 L 5.78125 -62.40625 L 51.203125 -62.40625 L 51.203125 -56.171875 C 46.691406 -58.066406 41.59375 -59.367188 35.90625 -60.078125 C 30.21875 -60.796875 23.140625 -61.15625 14.671875 -61.15625 L 14.671875 -35.734375 L 46.484375 -35.734375 L 46.484375 -34.484375 Z M 14.671875 -34.484375 "/></g></g></g><g fill="#f2f1ee" fill-opacity="1"><g transform="translate(116.575326, 98.517331)"><g><path d="M 28.359375 1.15625 C 24.679688 1.15625 20.78125 0.769531 16.65625 0 C 12.539062 -0.769531 8.320312 -1.894531 4 -3.375 L 4.71875 -9.59375 C 14.664062 -3.4375 23.078125 -0.359375 29.953125 -0.359375 C 33.628906 -0.359375 36.828125 -0.976562 39.546875 -2.21875 C 42.273438 -3.46875 44.273438 -5.234375 45.546875 -7.515625 C 46.828125 -9.796875 47.140625 -12.414062 46.484375 -15.375 C 45.953125 -17.570312 44.8125 -19.539062 43.0625 -21.28125 C 41.3125 -23.03125 39.160156 -24.613281 36.609375 -26.03125 C 34.066406 -27.457031 31.328125 -28.804688 28.390625 -30.078125 C 25.460938 -31.359375 22.5625 -32.632812 19.6875 -33.90625 C 16.8125 -35.1875 14.171875 -36.519531 11.765625 -37.90625 C 9.367188 -39.300781 7.414062 -40.84375 5.90625 -42.53125 C 4.394531 -44.21875 3.550781 -46.128906 3.375 -48.265625 C 3.132812 -51.765625 4.171875 -54.671875 6.484375 -56.984375 C 8.796875 -59.296875 11.9375 -61.015625 15.90625 -62.140625 C 19.875 -63.265625 24.203125 -63.828125 28.890625 -63.828125 C 32.265625 -63.828125 35.832031 -63.546875 39.59375 -62.984375 C 43.363281 -62.421875 47.234375 -61.546875 51.203125 -60.359375 L 50.40625 -54.140625 C 46.25 -56.679688 42.097656 -58.691406 37.953125 -60.171875 C 33.804688 -61.660156 30.160156 -62.40625 27.015625 -62.40625 C 21.867188 -62.40625 17.722656 -61.546875 14.578125 -59.828125 C 11.429688 -58.109375 9.976562 -55.648438 10.21875 -52.453125 C 10.34375 -50.671875 11.21875 -49.023438 12.84375 -47.515625 C 14.476562 -46.003906 16.582031 -44.566406 19.15625 -43.203125 C 21.726562 -41.835938 24.554688 -40.472656 27.640625 -39.109375 C 30.722656 -37.742188 33.816406 -36.335938 36.921875 -34.890625 C 40.035156 -33.441406 42.894531 -31.859375 45.5 -30.140625 C 48.113281 -28.421875 50.25 -26.507812 51.90625 -24.40625 C 53.570312 -22.300781 54.492188 -19.941406 54.671875 -17.328125 C 54.960938 -13.359375 53.984375 -9.992188 51.734375 -7.234375 C 49.484375 -4.484375 46.3125 -2.394531 42.21875 -0.96875 C 38.132812 0.445312 33.515625 1.15625 28.359375 1.15625 Z M 28.359375 1.15625 "/></g></g></g><g fill="#f2f1ee" fill-opacity="1"><g transform="translate(181.73514, 98.517331)"><g><path d="M 28.359375 1.15625 C 24.679688 1.15625 20.78125 0.769531 16.65625 0 C 12.539062 -0.769531 8.320312 -1.894531 4 -3.375 L 4.71875 -9.59375 C 14.664062 -3.4375 23.078125 -0.359375 29.953125 -0.359375 C 33.628906 -0.359375 36.828125 -0.976562 39.546875 -2.21875 C 42.273438 -3.46875 44.273438 -5.234375 45.546875 -7.515625 C 46.828125 -9.796875 47.140625 -12.414062 46.484375 -15.375 C 45.953125 -17.570312 44.8125 -19.539062 43.0625 -21.28125 C 41.3125 -23.03125 39.160156 -24.613281 36.609375 -26.03125 C 34.066406 -27.457031 31.328125 -28.804688 28.390625 -30.078125 C 25.460938 -31.359375 22.5625 -32.632812 19.6875 -33.90625 C 16.8125 -35.1875 14.171875 -36.519531 11.765625 -37.90625 C 9.367188 -39.300781 7.414062 -40.84375 5.90625 -42.53125 C 4.394531 -44.21875 3.550781 -46.128906 3.375 -48.265625 C 3.132812 -51.765625 4.171875 -54.671875 6.484375 -56.984375 C 8.796875 -59.296875 11.9375 -61.015625 15.90625 -62.140625 C 19.875 -63.265625 24.203125 -63.828125 28.890625 -63.828125 C 32.265625 -63.828125 35.832031 -63.546875 39.59375 -62.984375 C 43.363281 -62.421875 47.234375 -61.546875 51.203125 -60.359375 L 50.40625 -54.140625 C 46.25 -56.679688 42.097656 -58.691406 37.953125 -60.171875 C 33.804688 -61.660156 30.160156 -62.40625 27.015625 -62.40625 C 21.867188 -62.40625 17.722656 -61.546875 14.578125 -59.828125 C 11.429688 -58.109375 9.976562 -55.648438 10.21875 -52.453125 C 10.34375 -50.671875 11.21875 -49.023438 12.84375 -47.515625 C 14.476562 -46.003906 16.582031 -44.566406 19.15625 -43.203125 C 21.726562 -41.835938 24.554688 -40.472656 27.640625 -39.109375 C 30.722656 -37.742188 33.816406 -36.335938 36.921875 -34.890625 C 40.035156 -33.441406 42.894531 -31.859375 45.5 -30.140625 C 48.113281 -28.421875 50.25 -26.507812 51.90625 -24.40625 C 53.570312 -22.300781 54.492188 -19.941406 54.671875 -17.328125 C 54.960938 -13.359375 53.984375 -9.992188 51.734375 -7.234375 C 49.484375 -4.484375 46.3125 -2.394531 42.21875 -0.96875 C 38.132812 0.445312 33.515625 1.15625 28.359375 1.15625 Z M 28.359375 1.15625 "/></g></g></g><g fill="#f2f1ee" fill-opacity="1"><g transform="translate(246.894954, 98.517331)"><g><path d="M 14.671875 -34.484375 L 14.671875 -1.25 C 20.234375 -1.25 25.207031 -1.363281 29.59375 -1.59375 C 33.976562 -1.832031 38.023438 -2.320312 41.734375 -3.0625 C 45.441406 -3.800781 49.039062 -4.851562 52.53125 -6.21875 L 52.53125 0 L 5.78125 0 L 5.78125 -62.40625 L 51.203125 -62.40625 L 51.203125 -56.171875 C 46.691406 -58.066406 41.59375 -59.367188 35.90625 -60.078125 C 30.21875 -60.796875 23.140625 -61.15625 14.671875 -61.15625 L 14.671875 -35.734375 L 46.484375 -35.734375 L 46.484375 -34.484375 Z M 14.671875 -34.484375 "/></g></g></g><g fill="#f2f1ee" fill-opacity="1"><g transform="translate(310.721366, 98.517331)"><g/></g></g><g fill="#f2f1ee" fill-opacity="1"><g transform="translate(337.123102, 98.517331)"><g><path d="M 14.671875 0 L 5.78125 0 L 5.78125 -62.40625 L 14.671875 -62.40625 L 14.671875 -31.375 L 35.296875 -48.453125 C 37.484375 -50.347656 39.742188 -52.476562 42.078125 -54.84375 C 44.421875 -57.21875 46.128906 -59.738281 47.203125 -62.40625 L 53.421875 -62.40625 L 23.296875 -37.25 C 26.140625 -38.789062 28.921875 -39.914062 31.640625 -40.625 C 34.367188 -41.332031 36.8125 -41.390625 38.96875 -40.796875 C 41.132812 -40.203125 42.722656 -38.660156 43.734375 -36.171875 L 58.671875 0 L 49.78125 0 L 34.75 -35.375 C 34.164062 -36.800781 33.207031 -37.644531 31.875 -37.90625 C 30.539062 -38.175781 28.984375 -38.03125 27.203125 -37.46875 C 25.421875 -36.90625 23.566406 -36.0625 21.640625 -34.9375 C 19.710938 -33.8125 17.863281 -32.535156 16.09375 -31.109375 L 14.671875 -29.953125 Z M 14.671875 0 "/></g></g></g><g fill="#f2f1ee" fill-opacity="1"><g transform="translate(405.127546, 98.517331)"><g><path d="M 14.671875 -34.484375 L 14.671875 -1.25 C 20.234375 -1.25 25.207031 -1.363281 29.59375 -1.59375 C 33.976562 -1.832031 38.023438 -2.320312 41.734375 -3.0625 C 45.441406 -3.800781 49.039062 -4.851562 52.53125 -6.21875 L 52.53125 0 L 5.78125 0 L 5.78125 -62.40625 L 51.203125 -62.40625 L 51.203125 -56.171875 C 46.691406 -58.066406 41.59375 -59.367188 35.90625 -60.078125 C 30.21875 -60.796875 23.140625 -61.15625 14.671875 -61.15625 L 14.671875 -35.734375 L 46.484375 -35.734375 L 46.484375 -34.484375 Z M 14.671875 -34.484375 "/></g></g></g><g fill="#f2f1ee" fill-opacity="1"><g transform="translate(468.953957, 98.517331)"><g><path d="M 40.09375 -25.15625 L 52.453125 0 L 43.5625 0 L 30.484375 -25.6875 C 29.484375 -27.757812 27.882812 -28.796875 25.6875 -28.796875 C 24.382812 -28.796875 22.722656 -28.304688 20.703125 -27.328125 C 18.691406 -26.347656 16.679688 -24.941406 14.671875 -23.109375 L 14.671875 0 L 5.78125 0 L 5.78125 -62.40625 L 31.296875 -62.40625 C 35.554688 -62.40625 39.035156 -61.675781 41.734375 -60.21875 C 44.429688 -58.769531 46.429688 -56.875 47.734375 -54.53125 C 49.035156 -52.1875 49.6875 -49.679688 49.6875 -47.015625 C 49.6875 -44.535156 49.148438 -42.0625 48.078125 -39.59375 C 47.015625 -37.132812 45.398438 -35 43.234375 -33.1875 C 41.078125 -31.382812 38.335938 -30.1875 35.015625 -29.59375 C 37.390625 -28.707031 39.082031 -27.226562 40.09375 -25.15625 Z M 29.59375 -30.671875 C 32.144531 -30.546875 34.320312 -31.191406 36.125 -32.609375 C 37.9375 -34.035156 39.316406 -35.90625 40.265625 -38.21875 C 41.210938 -40.53125 41.6875 -42.960938 41.6875 -45.515625 C 41.6875 -48.296875 41.109375 -50.867188 39.953125 -53.234375 C 38.796875 -55.609375 37.046875 -57.519531 34.703125 -58.96875 C 32.367188 -60.425781 29.394531 -61.15625 25.78125 -61.15625 L 14.671875 -61.15625 L 14.671875 -24.359375 C 16.921875 -26.253906 19.332031 -27.804688 21.90625 -29.015625 C 24.488281 -30.234375 27.050781 -30.785156 29.59375 -30.671875 Z M 29.59375 -30.671875 "/></g></g></g><g fill="#f2f1ee" fill-opacity="1"><g transform="translate(531.180258, 98.517331)"><g><path d="M 40.09375 -25.15625 L 52.453125 0 L 43.5625 0 L 30.484375 -25.6875 C 29.484375 -27.757812 27.882812 -28.796875 25.6875 -28.796875 C 24.382812 -28.796875 22.722656 -28.304688 20.703125 -27.328125 C 18.691406 -26.347656 16.679688 -24.941406 14.671875 -23.109375 L 14.671875 0 L 5.78125 0 L 5.78125 -62.40625 L 31.296875 -62.40625 C 35.554688 -62.40625 39.035156 -61.675781 41.734375 -60.21875 C 44.429688 -58.769531 46.429688 -56.875 47.734375 -54.53125 C 49.035156 -52.1875 49.6875 -49.679688 49.6875 -47.015625 C 49.6875 -44.535156 49.148438 -42.0625 48.078125 -39.59375 C 47.015625 -37.132812 45.398438 -35 43.234375 -33.1875 C 41.078125 -31.382812 38.335938 -30.1875 35.015625 -29.59375 C 37.390625 -28.707031 39.082031 -27.226562 40.09375 -25.15625 Z M 29.59375 -30.671875 C 32.144531 -30.546875 34.320312 -31.191406 36.125 -32.609375 C 37.9375 -34.035156 39.316406 -35.90625 40.265625 -38.21875 C 41.210938 -40.53125 41.6875 -42.960938 41.6875 -45.515625 C 41.6875 -48.296875 41.109375 -50.867188 39.953125 -53.234375 C 38.796875 -55.609375 37.046875 -57.519531 34.703125 -58.96875 C 32.367188 -60.425781 29.394531 -61.15625 25.78125 -61.15625 L 14.671875 -61.15625 L 14.671875 -24.359375 C 16.921875 -26.253906 19.332031 -27.804688 21.90625 -29.015625 C 24.488281 -30.234375 27.050781 -30.785156 29.59375 -30.671875 Z M 29.59375 -30.671875 "/></g></g></g></g></g><g transform="matrix(1, 0, 0, 1, 498, 980)"><g clip-path="url(#2a63a8d99c)"><g fill="#f2f1ee" fill-opacity="1"><g transform="translate(1.775821, 36.291794)"><g><path d="M 20.875 -4.09375 L 20.875 0 L 3.171875 0 L 3.171875 -24.53125 L 8.078125 -24.53125 L 8.078125 -4.09375 Z M 20.875 -4.09375 "/></g></g></g><g fill="#f2f1ee" fill-opacity="1"><g transform="translate(32.853753, 36.291794)"><g><path d="M 23.078125 -24.53125 L 23.078125 -10 C 23.078125 -8.832031 23.054688 -7.867188 23.015625 -7.109375 C 22.847656 -4.878906 21.9375 -3.050781 20.28125 -1.625 C 18.632812 -0.207031 16.203125 0.5 12.984375 0.5 C 9.734375 0.5 7.285156 -0.207031 5.640625 -1.625 C 3.992188 -3.050781 3.085938 -4.878906 2.921875 -7.109375 C 2.867188 -7.867188 2.84375 -8.832031 2.84375 -10 L 2.84375 -24.53125 L 7.71875 -24.53125 L 7.71875 -9.5 C 7.71875 -8.664062 7.738281 -8.070312 7.78125 -7.71875 C 7.90625 -6.269531 8.398438 -5.148438 9.265625 -4.359375 C 10.128906 -3.566406 11.367188 -3.171875 12.984375 -3.171875 C 14.566406 -3.171875 15.789062 -3.566406 16.65625 -4.359375 C 17.519531 -5.148438 18.015625 -6.269531 18.140625 -7.71875 C 18.179688 -8.070312 18.203125 -8.664062 18.203125 -9.5 L 18.203125 -24.53125 Z M 23.078125 -24.53125 "/></g></g></g><g fill="#f2f1ee" fill-opacity="1"><g transform="translate(67.416413, 36.291794)"><g><path d="M 18.3125 0 L 12.265625 -9.28125 L 6.515625 0 L 0.671875 0 L 9.453125 -12.375 L 1.28125 -24.53125 L 6.96875 -24.53125 L 12.453125 -15.46875 L 18.203125 -24.53125 L 23.859375 -24.53125 L 15.296875 -12.484375 L 24.046875 0 Z M 18.3125 0 "/></g></g></g><g fill="#f2f1ee" fill-opacity="1"><g transform="translate(101.054573, 36.291794)"><g><path d="M 23.078125 -24.53125 L 23.078125 -10 C 23.078125 -8.832031 23.054688 -7.867188 23.015625 -7.109375 C 22.847656 -4.878906 21.9375 -3.050781 20.28125 -1.625 C 18.632812 -0.207031 16.203125 0.5 12.984375 0.5 C 9.734375 0.5 7.285156 -0.207031 5.640625 -1.625 C 3.992188 -3.050781 3.085938 -4.878906 2.921875 -7.109375 C 2.867188 -7.867188 2.84375 -8.832031 2.84375 -10 L 2.84375 -24.53125 L 7.71875 -24.53125 L 7.71875 -9.5 C 7.71875 -8.664062 7.738281 -8.070312 7.78125 -7.71875 C 7.90625 -6.269531 8.398438 -5.148438 9.265625 -4.359375 C 10.128906 -3.566406 11.367188 -3.171875 12.984375 -3.171875 C 14.566406 -3.171875 15.789062 -3.566406 16.65625 -4.359375 C 17.519531 -5.148438 18.015625 -6.269531 18.140625 -7.71875 C 18.179688 -8.070312 18.203125 -8.664062 18.203125 -9.5 L 18.203125 -24.53125 Z M 23.078125 -24.53125 "/></g></g></g><g fill="#f2f1ee" fill-opacity="1"><g transform="translate(135.617233, 36.291794)"><g><path d="M 20.953125 -6.1875 C 21.253906 -3.269531 21.84375 -1.207031 22.71875 0 L 17.359375 0 C 16.765625 -1.632812 16.359375 -3.460938 16.140625 -5.484375 C 15.804688 -8.253906 14.707031 -9.707031 12.84375 -9.84375 C 12.382812 -9.875 11.742188 -9.890625 10.921875 -9.890625 L 8.078125 -9.890625 L 8.078125 0 L 3.171875 0 L 3.171875 -24.53125 L 12.125 -24.53125 C 13.476562 -24.53125 14.664062 -24.472656 15.6875 -24.359375 C 17.625 -24.117188 19.179688 -23.472656 20.359375 -22.421875 C 21.535156 -21.367188 22.125 -19.847656 22.125 -17.859375 C 22.125 -16.316406 21.695312 -15.039062 20.84375 -14.03125 C 19.988281 -13.019531 18.8125 -12.300781 17.3125 -11.875 C 19.425781 -11.070312 20.640625 -9.175781 20.953125 -6.1875 Z M 8.078125 -13.546875 L 11.453125 -13.546875 C 12.421875 -13.546875 13.082031 -13.554688 13.4375 -13.578125 C 15.789062 -13.796875 16.96875 -14.972656 16.96875 -17.109375 C 16.96875 -18.222656 16.6875 -19.046875 16.125 -19.578125 C 15.570312 -20.109375 14.773438 -20.445312 13.734375 -20.59375 C 13.160156 -20.664062 12.472656 -20.703125 11.671875 -20.703125 L 8.078125 -20.703125 Z M 8.078125 -13.546875 "/></g></g></g><g fill="#f2f1ee" fill-opacity="1"><g transform="translate(168.473091, 36.291794)"><g><path d="M 14.125 -9.5 L 14.125 0 L 9.25 0 L 9.25 -9.5 L 0.5625 -24.53125 L 6.109375 -24.53125 L 11.84375 -13.828125 L 17.390625 -24.53125 L 22.796875 -24.53125 Z M 14.125 -9.5 "/></g></g></g><g fill="#f2f1ee" fill-opacity="1"><g transform="translate(200.333324, 36.291794)"><g/></g></g><g fill="#f2f1ee" fill-opacity="1"><g transform="translate(216.83233, 36.291794)"><g><path d="M 20.953125 -6.1875 C 21.253906 -3.269531 21.84375 -1.207031 22.71875 0 L 17.359375 0 C 16.765625 -1.632812 16.359375 -3.460938 16.140625 -5.484375 C 15.804688 -8.253906 14.707031 -9.707031 12.84375 -9.84375 C 12.382812 -9.875 11.742188 -9.890625 10.921875 -9.890625 L 8.078125 -9.890625 L 8.078125 0 L 3.171875 0 L 3.171875 -24.53125 L 12.125 -24.53125 C 13.476562 -24.53125 14.664062 -24.472656 15.6875 -24.359375 C 17.625 -24.117188 19.179688 -23.472656 20.359375 -22.421875 C 21.535156 -21.367188 22.125 -19.847656 22.125 -17.859375 C 22.125 -16.316406 21.695312 -15.039062 20.84375 -14.03125 C 19.988281 -13.019531 18.8125 -12.300781 17.3125 -11.875 C 19.425781 -11.070312 20.640625 -9.175781 20.953125 -6.1875 Z M 8.078125 -13.546875 L 11.453125 -13.546875 C 12.421875 -13.546875 13.082031 -13.554688 13.4375 -13.578125 C 15.789062 -13.796875 16.96875 -14.972656 16.96875 -17.109375 C 16.96875 -18.222656 16.6875 -19.046875 16.125 -19.578125 C 15.570312 -20.109375 14.773438 -20.445312 13.734375 -20.59375 C 13.160156 -20.664062 12.472656 -20.703125 11.671875 -20.703125 L 8.078125 -20.703125 Z M 8.078125 -13.546875 "/></g></g></g><g fill="#f2f1ee" fill-opacity="1"><g transform="translate(249.688188, 36.291794)"><g><path d="M 20.875 -3.875 L 20.875 0 L 3.171875 0 L 3.171875 -24.53125 L 20.515625 -24.53125 L 20.515625 -20.703125 L 8.078125 -20.703125 L 8.078125 -14.21875 L 19.625 -14.21875 L 19.625 -10.34375 L 8.078125 -10.34375 L 8.078125 -3.875 Z M 20.875 -3.875 "/></g></g></g><g fill="#f2f1ee" fill-opacity="1"><g transform="translate(281.192854, 36.291794)"><g><path d="M 16.46875 -7.390625 L 8.21875 -7.390625 L 5.765625 0 L 0.53125 0 L 9.390625 -24.53125 L 15.546875 -24.53125 L 24.21875 0 L 18.890625 0 Z M 12.375 -20.34375 L 9.453125 -11.265625 L 15.21875 -11.265625 Z M 12.375 -20.34375 "/></g></g></g><g fill="#f2f1ee" fill-opacity="1"><g transform="translate(314.831014, 36.291794)"><g><path d="M 20.875 -4.09375 L 20.875 0 L 3.171875 0 L 3.171875 -24.53125 L 8.078125 -24.53125 L 8.078125 -4.09375 Z M 20.875 -4.09375 "/></g></g></g><g fill="#f2f1ee" fill-opacity="1"><g transform="translate(345.908946, 36.291794)"><g/></g></g><g fill="#f2f1ee" fill-opacity="1"><g transform="translate(362.407952, 36.291794)"><g><path d="M 20.875 -3.875 L 20.875 0 L 3.171875 0 L 3.171875 -24.53125 L 20.515625 -24.53125 L 20.515625 -20.703125 L 8.078125 -20.703125 L 8.078125 -14.21875 L 19.625 -14.21875 L 19.625 -10.34375 L 8.078125 -10.34375 L 8.078125 -3.875 Z M 20.875 -3.875 "/></g></g></g><g fill="#f2f1ee" fill-opacity="1"><g transform="translate(393.912618, 36.291794)"><g><path d="M 11.3125 -25.03125 C 14.101562 -25.03125 16.238281 -24.332031 17.71875 -22.9375 C 19.207031 -21.539062 20.09375 -19.664062 20.375 -17.3125 L 15.359375 -17.3125 C 15.222656 -18.59375 14.796875 -19.585938 14.078125 -20.296875 C 13.367188 -21.015625 12.382812 -21.375 11.125 -21.375 C 10.113281 -21.375 9.285156 -21.125 8.640625 -20.625 C 8.003906 -20.125 7.6875 -19.398438 7.6875 -18.453125 C 7.6875 -17.410156 8.070312 -16.59375 8.84375 -16 C 9.613281 -15.40625 10.96875 -14.882812 12.90625 -14.4375 C 15.582031 -13.820312 17.554688 -12.882812 18.828125 -11.625 C 20.097656 -10.375 20.734375 -8.75 20.734375 -6.75 C 20.734375 -4.519531 19.851562 -2.753906 18.09375 -1.453125 C 16.34375 -0.148438 14.203125 0.5 11.671875 0.5 C 8.679688 0.5 6.296875 -0.15625 4.515625 -1.46875 C 2.734375 -2.789062 1.726562 -4.71875 1.5 -7.25 L 6.515625 -7.25 C 6.773438 -5.945312 7.363281 -4.941406 8.28125 -4.234375 C 9.207031 -3.523438 10.3125 -3.171875 11.59375 -3.171875 C 12.726562 -3.171875 13.679688 -3.453125 14.453125 -4.015625 C 15.222656 -4.585938 15.609375 -5.335938 15.609375 -6.265625 C 15.609375 -7.304688 15.234375 -8.144531 14.484375 -8.78125 C 13.742188 -9.425781 12.484375 -9.960938 10.703125 -10.390625 C 7.953125 -11.046875 5.898438 -11.925781 4.546875 -13.03125 C 3.203125 -14.132812 2.53125 -15.742188 2.53125 -17.859375 C 2.53125 -20.035156 3.378906 -21.773438 5.078125 -23.078125 C 6.785156 -24.378906 8.863281 -25.03125 11.3125 -25.03125 Z M 11.3125 -25.03125 "/></g></g></g><g fill="#f2f1ee" fill-opacity="1"><g transform="translate(425.132795, 36.291794)"><g><path d="M 22.375 -20.703125 L 14.046875 -20.703125 L 14.046875 0 L 9.140625 0 L 9.140625 -20.703125 L 0.8125 -20.703125 L 0.8125 -24.53125 L 22.375 -24.53125 Z M 22.375 -20.703125 "/></g></g></g><g fill="#f2f1ee" fill-opacity="1"><g transform="translate(456.886368, 36.291794)"><g><path d="M 16.46875 -7.390625 L 8.21875 -7.390625 L 5.765625 0 L 0.53125 0 L 9.390625 -24.53125 L 15.546875 -24.53125 L 24.21875 0 L 18.890625 0 Z M 12.375 -20.34375 L 9.453125 -11.265625 L 15.21875 -11.265625 Z M 12.375 -20.34375 "/></g></g></g><g fill="#f2f1ee" fill-opacity="1"><g transform="translate(490.524527, 36.291794)"><g><path d="M 22.375 -20.703125 L 14.046875 -20.703125 L 14.046875 0 L 9.140625 0 L 9.140625 -20.703125 L 0.8125 -20.703125 L 0.8125 -24.53125 L 22.375 -24.53125 Z M 22.375 -20.703125 "/></g></g></g><g fill="#f2f1ee" fill-opacity="1"><g transform="translate(522.2781, 36.291794)"><g><path d="M 20.875 -3.875 L 20.875 0 L 3.171875 0 L 3.171875 -24.53125 L 20.515625 -24.53125 L 20.515625 -20.703125 L 8.078125 -20.703125 L 8.078125 -14.21875 L 19.625 -14.21875 L 19.625 -10.34375 L 8.078125 -10.34375 L 8.078125 -3.875 Z M 20.875 -3.875 "/></g></g></g></g></g></svg>